<?xml version="1.0" standalone="no"?>
<!DOCTYPE svg PUBLIC "-//W3C//DTD SVG 1.1//EN" "http://www.w3.org/Graphics/SVG/1.1/DTD/svg11.dtd">

<svg width="800" height="600" version="1.1" xmlns="http://www.w3.org/2000/svg">
	<ellipse stroke="black" stroke-width="1" fill="none" cx="371.5" cy="76.5" rx="30" ry="30"/>
	<text x="343.5" y="82.5" font-family="Times New Roman" font-size="20">Closed</text>
	<ellipse stroke="black" stroke-width="1" fill="none" cx="371.5" cy="76.5" rx="24" ry="24"/>
	<ellipse stroke="black" stroke-width="1" fill="none" cx="559.5" cy="35.5" rx="30" ry="30"/>
	<text x="545.5" y="41.5" font-family="Times New Roman" font-size="20">I=3</text>
	<ellipse stroke="black" stroke-width="1" fill="none" cx="373.5" cy="186.5" rx="30" ry="30"/>
	<text x="343.5" y="192.5" font-family="Times New Roman" font-size="20">Syn.snt</text>
	<ellipse stroke="black" stroke-width="1" fill="none" cx="373.5" cy="312.5" rx="30" ry="30"/>
	<text x="347.5" y="318.5" font-family="Times New Roman" font-size="20">preEst</text>
	<ellipse stroke="black" stroke-width="1" fill="none" cx="407.5" cy="433.5" rx="30" ry="30"/>
	<text x="389.5" y="439.5" font-family="Times New Roman" font-size="20">EST</text>
	<polygon stroke="black" stroke-width="1" points="372.045,106.495 372.955,156.505"/>
	<polygon fill="black" stroke-width="1" points="372.955,156.505 377.808,148.415 367.81,148.597"/>
	<text x="271.5" y="137.5" font-family="Times New Roman" font-size="20">connect/syn</text>
	<polygon stroke="black" stroke-width="1" points="372.955,156.505 372.045,106.495"/>
	<polygon fill="black" stroke-width="1" points="372.045,106.495 367.192,114.585 377.19,114.403"/>
	<text x="377.5" y="137.5" font-family="Times New Roman" font-size="20">close, timeout, i = 0 / error, i = 3</text>
	<path stroke="black" stroke-width="1" fill="none" d="M 354.198,209.313 A 22.5,22.5 0 1 1 343.652,185.056"/>
	<text x="88.5" y="229.5" font-family="Times New Roman" font-size="20">timeout &amp; i &gt; 0 / syn, i=i-1</text>
	<polygon fill="black" stroke-width="1" points="343.652,185.056 336.924,178.443 334.759,188.206"/>
	<polygon stroke="black" stroke-width="1" points="373.5,216.5 373.5,282.5"/>
	<polygon fill="black" stroke-width="1" points="373.5,282.5 378.5,274.5 368.5,274.5"/>
	<text x="268.5" y="255.5" font-family="Times New Roman" font-size="20">syn+ack/ack</text>
	<path stroke="black" stroke-width="1" fill="none" d="M 355.446,336.313 A 22.5,22.5 0 1 1 343.617,312.655"/>
	<text x="192.5" y="359.5" font-family="Times New Roman" font-size="20">Syn+ack / ack</text>
	<polygon fill="black" stroke-width="1" points="343.617,312.655 336.545,306.411 334.906,316.276"/>
	<polygon stroke="black" stroke-width="1" points="381.615,341.381 399.385,404.619"/>
	<polygon fill="black" stroke-width="1" points="399.385,404.619 402.034,395.564 392.407,398.269"/>
	<text x="299.5" y="384.5" font-family="Times New Roman" font-size="20">timeout / -</text>
</svg>
