<?xml version="1.0" standalone="no"?>
<!DOCTYPE svg PUBLIC "-//W3C//DTD SVG 1.1//EN" "http://www.w3.org/Graphics/SVG/1.1/DTD/svg11.dtd">

<svg width="800" height="600" version="1.1" xmlns="http://www.w3.org/2000/svg">
	<ellipse stroke="black" stroke-width="1" fill="none" cx="384.5" cy="80.5" rx="30" ry="30"/>
	<text x="373.5" y="86.5" font-family="Times New Roman" font-size="20">est</text>
	<ellipse stroke="black" stroke-width="1" fill="none" cx="384.5" cy="80.5" rx="24" ry="24"/>
	<ellipse stroke="black" stroke-width="1" fill="none" cx="384.5" cy="214.5" rx="30" ry="30"/>
	<text x="361.5" y="220.5" font-family="Times New Roman" font-size="20">cls_w</text>
	<ellipse stroke="black" stroke-width="1" fill="none" cx="384.5" cy="355.5" rx="30" ry="30"/>
	<text x="356.5" y="361.5" font-family="Times New Roman" font-size="20">lst_ack</text>
	<ellipse stroke="black" stroke-width="1" fill="none" cx="384.5" cy="505.5" rx="30" ry="30"/>
	<text x="368.5" y="511.5" font-family="Times New Roman" font-size="20">clsd</text>
	<path stroke="black" stroke-width="1" fill="none" d="M 371.689,187.452 A 125.822,125.822 0 0 1 371.689,107.548"/>
	<polygon fill="black" stroke-width="1" points="371.689,187.452 373.89,178.278 364.408,181.453"/>
	<text x="280.5" y="153.5" font-family="Times New Roman" font-size="20">FIN/ACK</text>
	<path stroke="black" stroke-width="1" fill="none" d="M 394.321,242.807 A 172.559,172.559 0 0 1 394.321,327.193"/>
	<polygon fill="black" stroke-width="1" points="394.321,327.193 401.125,320.658 391.429,318.213"/>
	<text x="404.5" y="291.5" font-family="Times New Roman" font-size="20">close()/FIN</text>
	<path stroke="black" stroke-width="1" fill="none" d="M 411.747,343.28 A 90.139,90.139 0 1 1 411.747,517.72"/>
	<polygon fill="black" stroke-width="1" points="411.747,517.72 418.226,524.577 420.75,514.901"/>
	<text x="529.5" y="436.5" font-family="Times New Roman" font-size="20">ACK/-</text>
	<path stroke="black" stroke-width="1" fill="none" d="M 355.466,362.572 A 22.5,22.5 0 1 1 361.226,336.757"/>
	<text x="156.5" y="343.5" font-family="Times New Roman" font-size="20">timeout,i&gt;0/FIN,i--</text>
	<polygon fill="black" stroke-width="1" points="361.226,336.757 359.682,327.45 352.184,334.066"/>
	<path stroke="black" stroke-width="1" fill="none" d="M 357.703,227.725 A 22.5,22.5 0 1 1 357.703,201.275"/>
	<text x="231.5" y="220.5" font-family="Times New Roman" font-size="20">FIN/ACK</text>
	<polygon fill="black" stroke-width="1" points="357.703,201.275 354.17,192.527 348.292,200.618"/>
	<path stroke="black" stroke-width="1" fill="none" d="M 357.951,491.931 A 78.046,78.046 0 0 1 357.951,369.069"/>
	<polygon fill="black" stroke-width="1" points="357.951,491.931 354.738,483.061 348.57,490.932"/>
	<text x="217.5" y="436.5" font-family="Times New Roman" font-size="20">timeout,i=0/-</text>
</svg>
